<svg width="1204" height="88" viewBox="0 0 1204 88" fill="none" xmlns="http://www.w3.org/2000/svg">
<g filter="url(#filter0_d_1391_1239)">
<rect width="1200" height="82" transform="translate(4)" fill="#FDFDFD"/>
<path fill-rule="evenodd" clip-rule="evenodd" d="M980.222 63C992.495 63 1002.44 53.1503 1002.44 41C1002.44 28.8497 992.495 19 980.222 19C967.949 19 958 28.8497 958 41C958 53.1503 967.949 63 980.222 63Z" fill="#8B72FC"/>
<mask id="mask0_1391_1239" style="mask-type:luminance" maskUnits="userSpaceOnUse" x="958" y="19" width="45" height="44">
<path fill-rule="evenodd" clip-rule="evenodd" d="M980.222 63C992.495 63 1002.44 53.1503 1002.44 41C1002.44 28.8497 992.495 19 980.222 19C967.949 19 958 28.8497 958 41C958 53.1503 967.949 63 980.222 63Z" fill="white"/>
</mask>
<g mask="url(#mask0_1391_1239)">
</g>
<path d="M1013.76 36.5V28.072H1010.81V26.896H1018.21V28.072H1015.26V36.5H1013.76ZM1021.84 36.64C1021.21 36.64 1020.65 36.5047 1020.16 36.234C1019.69 35.954 1019.32 35.548 1019.04 35.016C1018.77 34.4747 1018.64 33.826 1018.64 33.07V32.776C1018.64 32.0107 1018.78 31.362 1019.06 30.83C1019.35 30.298 1019.74 29.8967 1020.23 29.626C1020.73 29.346 1021.29 29.206 1021.93 29.206H1022.08C1022.66 29.206 1023.17 29.3273 1023.62 29.57C1024.07 29.8127 1024.42 30.158 1024.66 30.606C1024.91 31.054 1025.04 31.586 1025.04 32.202V33.098H1020.09C1020.09 33.63 1020.16 34.0873 1020.3 34.47C1020.45 34.8527 1020.66 35.1467 1020.93 35.352C1021.21 35.548 1021.56 35.646 1021.96 35.646C1022.29 35.646 1022.59 35.5807 1022.85 35.45C1023.11 35.3193 1023.32 35.1187 1023.48 34.848C1023.64 34.5773 1023.72 34.2413 1023.72 33.84H1025.04C1025.04 34.4093 1024.9 34.904 1024.63 35.324C1024.36 35.744 1023.99 36.0707 1023.52 36.304C1023.07 36.528 1022.55 36.64 1021.97 36.64H1021.84ZM1020.11 32.258H1023.66C1023.66 31.558 1023.51 31.04 1023.2 30.704C1022.9 30.368 1022.48 30.2 1021.94 30.2C1021.45 30.2 1021.02 30.3727 1020.67 30.718C1020.32 31.0633 1020.14 31.5767 1020.11 32.258ZM1029.74 36.64C1029.15 36.64 1028.62 36.4953 1028.15 36.206C1027.68 35.9073 1027.31 35.492 1027.04 34.96C1026.78 34.428 1026.65 33.8027 1026.65 33.084V32.748C1026.65 32.2067 1026.73 31.7213 1026.89 31.292C1027.06 30.8533 1027.28 30.48 1027.56 30.172C1027.85 29.8547 1028.19 29.6167 1028.57 29.458C1028.96 29.29 1029.38 29.206 1029.83 29.206H1029.98C1030.57 29.206 1031.08 29.3273 1031.52 29.57C1031.96 29.8033 1032.3 30.1393 1032.54 30.578C1032.8 31.0073 1032.92 31.53 1032.92 32.146H1031.68C1031.68 31.7073 1031.6 31.3433 1031.45 31.054C1031.3 30.7647 1031.1 30.55 1030.84 30.41C1030.58 30.27 1030.28 30.2 1029.95 30.2C1029.42 30.2 1028.98 30.382 1028.62 30.746C1028.28 31.11 1028.11 31.6607 1028.11 32.398V33.42C1028.11 34.1573 1028.28 34.7127 1028.62 35.086C1028.97 35.4593 1029.42 35.646 1029.97 35.646C1030.31 35.646 1030.62 35.5807 1030.88 35.45C1031.14 35.31 1031.35 35.1 1031.49 34.82C1031.64 34.5307 1031.72 34.1573 1031.72 33.7H1032.92C1032.92 34.3253 1032.79 34.8573 1032.52 35.296C1032.26 35.7347 1031.9 36.0707 1031.44 36.304C1030.99 36.528 1030.48 36.64 1029.91 36.64H1029.74ZM1034.72 36.5V26.42H1036.12V30.298C1036.38 29.934 1036.7 29.6633 1037.09 29.486C1037.49 29.2993 1037.9 29.206 1038.32 29.206C1038.81 29.206 1039.24 29.2993 1039.61 29.486C1039.98 29.6727 1040.28 29.9527 1040.49 30.326C1040.72 30.69 1040.83 31.1473 1040.83 31.698V36.5H1039.43V31.936C1039.43 31.348 1039.29 30.928 1039.01 30.676C1038.74 30.4147 1038.35 30.284 1037.86 30.284C1037.54 30.284 1037.25 30.3633 1036.98 30.522C1036.72 30.6807 1036.51 30.8953 1036.35 31.166C1036.2 31.4273 1036.12 31.7307 1036.12 32.076V36.5H1034.72ZM1043.06 36.5V29.346H1044.1L1044.3 30.396C1044.31 30.3773 1044.35 30.3073 1044.42 30.186C1044.5 30.0647 1044.61 29.9293 1044.76 29.78C1044.92 29.6213 1045.12 29.486 1045.36 29.374C1045.61 29.262 1045.92 29.206 1046.28 29.206C1046.78 29.206 1047.18 29.3087 1047.5 29.514C1047.83 29.71 1048.07 29.9807 1048.22 30.326C1048.37 30.6713 1048.45 31.0633 1048.45 31.502C1048.45 31.5953 1048.45 31.6933 1048.44 31.796C1048.43 31.8893 1048.43 31.964 1048.43 32.02H1047.22V31.754C1047.22 31.5487 1047.18 31.334 1047.1 31.11C1047.02 30.8767 1046.89 30.6853 1046.69 30.536C1046.49 30.3773 1046.22 30.298 1045.86 30.298C1045.6 30.298 1045.38 30.354 1045.19 30.466C1045.01 30.578 1044.87 30.718 1044.76 30.886C1044.66 31.054 1044.58 31.2313 1044.53 31.418C1044.49 31.6047 1044.46 31.7773 1044.46 31.936V36.5H1043.06ZM1050.05 36.5V29.346H1051.45V36.5H1050.05ZM1050.01 27.596V26.42H1051.5V27.596H1050.01ZM1055.87 36.64C1055.52 36.64 1055.21 36.584 1054.93 36.472C1054.66 36.36 1054.45 36.1827 1054.29 35.94C1054.14 35.688 1054.06 35.3567 1054.06 34.946V30.438H1053.28V29.346H1054.1L1054.59 27.064H1055.46V29.346H1057.13V30.438H1055.46V34.694C1055.46 35.1047 1055.55 35.366 1055.71 35.478C1055.88 35.59 1056.06 35.646 1056.26 35.646C1056.36 35.646 1056.5 35.6227 1056.68 35.576C1056.87 35.5293 1057.02 35.4827 1057.13 35.436V36.374C1057.03 36.43 1056.9 36.4767 1056.75 36.514C1056.61 36.5607 1056.46 36.5933 1056.3 36.612C1056.15 36.6307 1056.01 36.64 1055.87 36.64ZM1059.64 39.104C1059.43 39.104 1059.24 39.0853 1059.08 39.048C1058.91 39.02 1058.75 38.9733 1058.59 38.908V37.816C1058.69 37.8533 1058.82 37.8907 1058.98 37.928C1059.14 37.9653 1059.29 37.984 1059.44 37.984C1059.68 37.984 1059.88 37.9327 1060.04 37.83C1060.2 37.7367 1060.35 37.5733 1060.48 37.34C1060.62 37.1067 1060.76 36.7893 1060.9 36.388L1058.1 29.346H1059.59L1061.58 34.638H1061.65L1063.6 29.346H1064.98L1062.3 36.206C1062.09 36.738 1061.87 37.2233 1061.64 37.662C1061.41 38.1007 1061.14 38.4507 1060.83 38.712C1060.51 38.9733 1060.11 39.104 1059.64 39.104ZM1072.85 36.5V26.896H1078.95L1078.77 28.072H1074.33V31.096H1078.21V32.272H1074.33V36.5H1072.85ZM1083.22 36.64C1082.6 36.64 1082.05 36.4953 1081.55 36.206C1081.07 35.9167 1080.68 35.5013 1080.4 34.96C1080.12 34.4187 1079.98 33.7793 1079.98 33.042V32.804C1079.98 32.048 1080.12 31.404 1080.4 30.872C1080.68 30.3307 1081.07 29.92 1081.55 29.64C1082.05 29.3507 1082.6 29.206 1083.22 29.206H1083.4C1084.03 29.206 1084.58 29.3507 1085.07 29.64C1085.55 29.9293 1085.93 30.3447 1086.21 30.886C1086.49 31.418 1086.63 32.0573 1086.63 32.804V33.042C1086.63 33.7793 1086.49 34.4187 1086.21 34.96C1085.93 35.5013 1085.55 35.9167 1085.05 36.206C1084.57 36.4953 1084.02 36.64 1083.4 36.64H1083.22ZM1083.3 35.646C1083.66 35.646 1083.97 35.562 1084.25 35.394C1084.53 35.226 1084.76 34.974 1084.93 34.638C1085.09 34.302 1085.18 33.8867 1085.18 33.392V32.454C1085.18 31.95 1085.09 31.5347 1084.93 31.208C1084.76 30.872 1084.53 30.62 1084.25 30.452C1083.97 30.284 1083.66 30.2 1083.3 30.2C1082.96 30.2 1082.64 30.284 1082.36 30.452C1082.08 30.62 1081.86 30.872 1081.69 31.208C1081.52 31.5347 1081.44 31.95 1081.44 32.454V33.392C1081.44 33.8867 1081.52 34.302 1081.69 34.638C1081.86 34.974 1082.08 35.226 1082.36 35.394C1082.64 35.562 1082.96 35.646 1083.3 35.646ZM1090.89 36.64C1090.15 36.64 1089.56 36.4393 1089.12 36.038C1088.69 35.6273 1088.47 34.9973 1088.47 34.148V29.346H1089.87V33.812C1089.87 34.4373 1089.99 34.8853 1090.24 35.156C1090.5 35.4173 1090.87 35.548 1091.35 35.548C1091.68 35.548 1091.98 35.4733 1092.25 35.324C1092.53 35.1653 1092.75 34.9507 1092.92 34.68C1093.09 34.4093 1093.17 34.106 1093.17 33.77V29.346H1094.57V35.17C1094.57 35.338 1094.61 35.4593 1094.68 35.534C1094.77 35.6087 1094.86 35.646 1094.96 35.646C1095.07 35.646 1095.17 35.6273 1095.28 35.59C1095.4 35.5527 1095.5 35.506 1095.59 35.45V36.346C1095.47 36.4393 1095.32 36.5093 1095.14 36.556C1094.97 36.612 1094.76 36.64 1094.53 36.64C1094.23 36.64 1093.99 36.584 1093.81 36.472C1093.64 36.36 1093.51 36.2153 1093.42 36.038C1093.34 35.8513 1093.28 35.6553 1093.24 35.45C1093.01 35.8233 1092.68 36.1173 1092.25 36.332C1091.82 36.5373 1091.36 36.64 1090.89 36.64ZM1097.23 36.5V29.346H1098.24L1098.44 30.396C1098.7 30.004 1099.03 29.71 1099.44 29.514C1099.86 29.3087 1100.32 29.206 1100.8 29.206C1101.3 29.206 1101.73 29.2993 1102.1 29.486C1102.49 29.6727 1102.79 29.9527 1103 30.326C1103.21 30.69 1103.32 31.1473 1103.32 31.698V36.5H1101.92V31.936C1101.92 31.348 1101.79 30.928 1101.52 30.676C1101.25 30.4147 1100.86 30.284 1100.37 30.284C1100.05 30.284 1099.76 30.3633 1099.49 30.522C1099.22 30.6807 1099.01 30.8953 1098.86 31.166C1098.71 31.4273 1098.63 31.7307 1098.63 32.076V36.5H1097.23ZM1105.49 36.5V35.002H1106.99V36.5H1105.49ZM1109.06 36.5V35.002H1110.55V36.5H1109.06ZM1112.62 36.5V35.002H1114.12V36.5H1112.62Z" fill="#404040"/>
<path d="M1013.4 47.268L1016.05 53.748H1016.1L1018.76 47.268H1020.6V55.5H1019.42V48.648H1019.35L1016.5 55.5H1015.51L1012.68 48.648H1012.62V55.5H1011.55V47.268H1013.4ZM1025.16 49.248C1026.67 49.248 1027.73 50.256 1027.73 51.84V52.692H1023.45C1023.48 53.964 1024.03 54.72 1025.19 54.72C1026.28 54.72 1026.66 53.94 1026.66 53.22H1027.73C1027.73 54.672 1026.66 55.62 1025.16 55.62H1025.11C1023.37 55.62 1022.32 54.408 1022.32 52.56V52.32C1022.32 50.496 1023.37 49.248 1025.08 49.248H1025.16ZM1025.1 50.148C1024.2 50.148 1023.6 50.7 1023.47 51.816H1026.61C1026.61 50.7 1026.01 50.148 1025.1 50.148ZM1032.27 49.248C1033.08 49.248 1033.64 49.584 1033.95 50.268C1034.54 49.44 1035.21 49.248 1035.84 49.248C1037.09 49.248 1037.84 50.004 1037.84 51.372V55.5H1036.71V51.576C1036.71 50.628 1036.34 50.148 1035.61 50.148C1034.83 50.148 1034.17 50.892 1034.17 51.852V55.5H1033.04V51.576C1033.04 50.628 1032.67 50.148 1031.94 50.148C1031.16 50.148 1030.5 50.892 1030.5 51.852V55.5H1029.37V49.368H1030.19L1030.34 50.268C1030.81 49.584 1031.46 49.248 1032.27 49.248ZM1042.68 49.248C1044.26 49.248 1045.15 50.46 1045.15 52.296V52.428C1045.15 54.42 1044.2 55.62 1042.67 55.62C1041.76 55.62 1041.07 55.26 1040.6 54.528L1040.21 55.5H1039.78V46.86H1040.9V50.148C1041.25 49.656 1041.91 49.248 1042.68 49.248ZM1042.45 50.148C1041.4 50.148 1040.89 50.88 1040.89 52.404V52.464C1040.89 54.012 1041.41 54.72 1042.45 54.72C1043.5 54.72 1044.02 53.964 1044.02 52.464V52.356C1044.02 50.868 1043.46 50.148 1042.45 50.148ZM1049.23 49.248C1050.74 49.248 1051.8 50.256 1051.8 51.84V52.692H1047.52C1047.55 53.964 1048.1 54.72 1049.26 54.72C1050.35 54.72 1050.73 53.94 1050.73 53.22H1051.8C1051.8 54.672 1050.73 55.62 1049.23 55.62H1049.18C1047.44 55.62 1046.39 54.408 1046.39 52.56V52.32C1046.39 50.496 1047.44 49.248 1049.15 49.248H1049.23ZM1049.17 50.148C1048.27 50.148 1047.67 50.7 1047.54 51.816H1050.68C1050.68 50.7 1050.08 50.148 1049.17 50.148ZM1056.2 49.248C1057.39 49.248 1058.01 50.112 1058.01 51.168C1058.01 51.324 1058 51.468 1057.98 51.624H1056.98V51.36C1056.98 50.592 1056.62 50.148 1055.85 50.148C1055.02 50.148 1054.57 50.808 1054.57 51.84V55.5H1053.44V49.368H1054.24L1054.41 50.28C1054.66 49.788 1055.24 49.248 1056.2 49.248Z" fill="#53547B"/>
<path d="M996.067 41.407L982.126 27.4661C981.828 27.1677 981.423 27 981.001 27C980.579 27 980.174 27.1677 979.875 27.4661L965.933 41.4094C965.627 41.7151 965.387 42.0798 965.227 42.4813C965.066 42.8829 964.99 43.3128 965.001 43.7449C965.012 44.177 965.112 44.6023 965.293 44.9948C965.474 45.3874 965.733 45.7389 966.054 46.0281L971.74 51.1467C972.315 51.6642 973.058 51.9547 973.832 51.9642C974.605 51.9736 975.356 51.7012 975.943 51.1979L978.93 48.6386C979.507 48.1444 980.242 47.8728 981.001 47.8728C981.761 47.8728 982.495 48.1444 983.072 48.6386L986.058 51.1979C986.646 51.7014 987.396 51.9739 988.17 51.9645C988.944 51.9551 989.687 51.6644 990.263 51.1467L995.946 46.0281C996.267 45.7387 996.526 45.3869 996.707 44.9942C996.888 44.6015 996.988 44.176 996.999 43.7437C997.01 43.3114 996.934 42.8813 996.773 42.4796C996.613 42.0778 996.373 41.7129 996.067 41.407Z" fill="white"/>
<path d="M990.773 40.2881C990.918 39.0669 991.173 38.7829 991.173 38.2887C991.12 37.8512 990.961 37.4332 990.71 37.0708C990.459 36.7085 990.124 36.4128 989.733 36.2093C988.52 35.5302 986.404 36.0661 982.221 37.169C981.779 37.2941 981.315 37.3214 980.861 37.249C980.261 37.1449 979.705 36.8668 979.262 36.4492C981.598 35.8493 983.894 35.1013 986.135 34.2098C988.382 33.3173 991.061 31.1531 992.808 30.2109C993.928 30.5844 994.366 32.1616 995.485 32.5343L994.045 34.4537C992.906 36.7238 992.098 39.1457 991.646 41.6453C991.516 41.6559 991.385 41.6401 991.262 41.5989C991.138 41.5576 991.024 41.4918 990.926 41.4054C990.711 41.1783 990.706 40.8408 990.773 40.2881Z" fill="#8B72FC"/>
<path d="M983.828 39.2775C984.042 39.4212 984.291 39.5042 984.548 39.5174C985.067 39.535 985.48 39.2191 986.227 38.4777C986.692 38.0171 987.273 37.4045 987.907 36.6383C987.336 36.5667 986.756 36.6495 986.227 36.8782L983.828 39.2775Z" fill="#8B72FC"/>
<path d="M980.711 39.0362C980.94 39.0381 981.17 39.0261 981.398 39.0002C981.733 38.9583 982.064 38.8904 982.389 38.7971C983.237 38.4855 984.022 38.0251 984.708 37.4375L982.149 37.9173C981.792 37.99 981.461 38.1556 981.189 38.3972C980.989 38.5768 980.827 38.7939 980.711 39.0362Z" fill="#8B72FC"/>
<path d="M972.46 43.0648C972.532 44.2925 972.333 44.6164 972.417 45.1018C972.546 45.5229 972.776 45.9062 973.086 46.2186C973.396 46.531 973.778 46.7632 974.198 46.8949C975.512 47.35 977.501 46.4502 981.424 44.6316C981.837 44.4301 982.289 44.3209 982.748 44.3117C983.356 44.3089 983.952 44.485 984.462 44.8179C982.267 45.8181 980.139 46.9569 978.089 48.2274C976.035 49.5014 973.777 52.1031 972.224 53.3379C971.057 53.1676 970.347 51.692 969.18 51.5216L970.259 49.3806C970.981 46.9456 971.351 44.4195 971.356 41.8795C971.482 41.8464 971.613 41.839 971.742 41.8578C971.871 41.8766 971.995 41.9213 972.106 41.9891C972.367 42.1778 972.428 42.509 972.46 43.0648Z" fill="#8B72FC"/>
<path d="M979.475 42.8394C979.24 42.7357 978.98 42.6978 978.725 42.7298C978.211 42.8034 977.86 43.1873 977.255 44.0471C976.878 44.5829 976.414 45.2875 975.926 46.1513C976.5 46.1212 977.056 45.9378 977.536 45.6202L979.475 42.8394Z" fill="#8B72FC"/>
<path d="M982.586 42.5273C982.36 42.567 982.136 42.6204 981.916 42.6873C981.593 42.7875 981.279 42.9127 980.976 43.0616C980.197 43.517 979.505 44.1077 978.934 44.806L981.367 43.8846C981.704 43.7506 982.001 43.5299 982.226 43.2448C982.392 43.0318 982.515 42.7879 982.586 42.5273Z" fill="#8B72FC"/>
<rect x="1132.44" y="32" width="19" height="18" rx="4" fill="#6F01D0"/>
<path d="M1149.72 46.9667L1145.38 51.3133C1144.86 51.8267 1144.02 51.8267 1143.51 51.3133L1139.16 46.9667" stroke="#C2C2C2" stroke-width="1.5" stroke-miterlimit="10" stroke-linecap="round" stroke-linejoin="round"/>
<path d="M901.02 32.91C897.71 32.91 895.02 35.6 895.02 38.91V41.8C895.02 42.41 894.76 43.34 894.45 43.86L893.3 45.77C892.59 46.95 893.08 48.26 894.38 48.7C898.69 50.14 903.34 50.14 907.65 48.7C908.86 48.3 909.39 46.87 908.73 45.77L907.58 43.86C907.28 43.34 907.02 42.41 907.02 41.8V38.91C907.02 35.61 904.32 32.91 901.02 32.91Z" stroke="#4D4D4D" stroke-width="1.5" stroke-miterlimit="10" stroke-linecap="round"/>
<path d="M902.87 33.2C902.56 33.11 902.24 33.04 901.91 33C900.95 32.88 900.03 32.95 899.17 33.2C899.46 32.46 900.18 31.94 901.02 31.94C901.86 31.94 902.58 32.46 902.87 33.2Z" stroke="#4D4D4D" stroke-width="1.5" stroke-miterlimit="10" stroke-linecap="round" stroke-linejoin="round"/>
<path d="M904.02 49.06C904.02 50.71 902.67 52.06 901.02 52.06C900.2 52.06 899.44 51.72 898.9 51.18C898.36 50.64 898.02 49.88 898.02 49.06" stroke="#4D4D4D" stroke-width="1.5" stroke-miterlimit="10"/>
<path fill-rule="evenodd" clip-rule="evenodd" d="M904.704 38C906.936 38 908.745 36.2091 908.745 34C908.745 31.7909 906.936 30 904.704 30C902.473 30 900.664 31.7909 900.664 34C900.664 36.2091 902.473 38 904.704 38Z" fill="#FF3E3E"/>
</g>
<defs>
<filter id="filter0_d_1391_1239" x="0" y="-2" width="1208" height="90" filterUnits="userSpaceOnUse" color-interpolation-filters="sRGB">
<feFlood flood-opacity="0" result="BackgroundImageFix"/>
<feColorMatrix in="SourceAlpha" type="matrix" values="0 0 0 0 0 0 0 0 0 0 0 0 0 0 0 0 0 0 127 0" result="hardAlpha"/>
<feOffset dy="2"/>
<feGaussianBlur stdDeviation="2"/>
<feColorMatrix type="matrix" values="0 0 0 0 0 0 0 0 0 0 0 0 0 0 0 0 0 0 0.0622169 0"/>
<feBlend mode="normal" in2="BackgroundImageFix" result="effect1_dropShadow_1391_1239"/>
<feBlend mode="normal" in="SourceGraphic" in2="effect1_dropShadow_1391_1239" result="shape"/>
</filter>
</defs>
</svg>
